<svg width="11" height="11" viewBox="0 0 11 11" fill="none" xmlns="http://www.w3.org/2000/svg">
<g clip-path="url(#clip0_808_513)">
<path d="M10.45 4.67539H8.6559C8.74785 4.57533 8.79922 4.44461 8.8 4.30872V0.825391C8.8 0.521634 8.55376 0.275391 8.25 0.275391H4.76667C4.62661 0.275435 4.49191 0.329173 4.39028 0.425541L2.70142 1.61171C2.50797 1.70167 2.38399 1.89538 2.38333 2.10872V4.67539C2.24328 4.67543 2.10858 4.72917 2.00695 4.82554L0.318083 6.01171C0.124634 6.10167 0.000658477 6.29538 0 6.50872V10.1754C0 10.4791 0.246243 10.7254 0.55 10.7254H4.4C4.53574 10.7249 4.66644 10.6739 4.76667 10.5824C4.86689 10.6739 4.99759 10.7249 5.13333 10.7254H8.98333C9.13209 10.7253 9.2744 10.6647 9.3775 10.5575L10.8365 9.09849C10.941 8.99576 11 8.85532 11 8.70872V5.22539C10.9985 4.92226 10.7531 4.6769 10.45 4.67539ZM9.2279 6.01867C9.1522 5.97982 9.06843 5.95928 8.98333 5.95872H7.37623L8.2929 5.04206H10.344L9.2279 6.01867ZM4.4 5.95872H2.93333C2.83208 5.95872 2.75 5.87664 2.75 5.77539V2.10872C2.75 2.00747 2.83208 1.92539 2.93333 1.92539H6.78333C6.88459 1.92539 6.96667 2.00747 6.96667 2.10872V5.77539C6.96683 5.82338 6.94805 5.86949 6.91442 5.90372L6.91075 5.90739C6.8766 5.94047 6.83088 5.95889 6.78333 5.95872H4.4ZM7.28328 1.88249L8.43333 0.876174V4.30872C8.43307 4.35717 8.41324 4.40346 8.37833 4.43706L7.33333 5.48371V2.10872C7.33311 2.03059 7.31604 1.95342 7.28328 1.88249ZM7.0279 1.61867C6.9522 1.57982 6.86843 1.55928 6.78333 1.55872H5.48442L6.66288 0.642057H8.14403L7.0279 1.61867ZM4.61358 0.716857C4.62286 0.710339 4.63152 0.702974 4.63943 0.694857C4.67304 0.660896 4.71889 0.64187 4.76667 0.642057L6.06558 0.642056L4.88712 1.55872H3.41495L4.61358 0.716857ZM2.23025 5.11686C2.23953 5.11034 2.24818 5.10297 2.2561 5.09486C2.28971 5.0609 2.33556 5.04187 2.38333 5.04206V5.77539C2.38394 5.83799 2.39535 5.90001 2.41707 5.95872H1.03162L2.23025 5.11686ZM0.55 10.3587C0.448748 10.3587 0.366667 10.2766 0.366667 10.1754V6.50872C0.366667 6.40747 0.448748 6.32539 0.55 6.32539H4.4C4.50125 6.32539 4.58333 6.40747 4.58333 6.50872V10.1754C4.58333 10.2234 4.5645 10.2695 4.5309 10.3037L4.5276 10.3068C4.4935 10.3402 4.44769 10.3588 4.4 10.3587H0.55ZM5.13333 10.3587C5.03208 10.3587 4.95 10.2766 4.95 10.1754V6.50872C4.95 6.40747 5.03208 6.32539 5.13333 6.32539H8.98333C9.08459 6.32539 9.16667 6.40747 9.16667 6.50872V10.1754C9.16634 10.2222 9.14811 10.2672 9.1157 10.301L9.11167 10.3037L9.1091 10.3067C9.07541 10.3395 9.03038 10.3582 8.98333 10.3587H5.13333ZM10.5783 8.83706L9.53333 9.88206V6.50872C9.53311 6.43059 9.51604 6.35342 9.48328 6.28249L10.6333 5.27617V8.70872C10.6331 8.75717 10.6132 8.80346 10.5783 8.83706Z" fill="#1D3557"/>
<path d="M4.21621 4.49219H3.48288C3.28037 4.49219 3.11621 4.65635 3.11621 4.85885V5.22552C3.11621 5.42803 3.28037 5.59219 3.48288 5.59219H4.21621C4.41872 5.59219 4.58288 5.42803 4.58288 5.22552V4.85885C4.58288 4.65635 4.41872 4.49219 4.21621 4.49219ZM3.48288 5.22552V4.85885H4.21621V5.22552H3.48288Z" fill="#1D3557"/>
<path d="M6.41693 4.49219H5.86693C5.76567 4.49219 5.68359 4.57427 5.68359 4.67552C5.68359 4.77677 5.76567 4.85885 5.86693 4.85885H6.41693C6.51818 4.85885 6.60026 4.77677 6.60026 4.67552C6.60026 4.57427 6.51818 4.49219 6.41693 4.49219Z" fill="#1D3557"/>
<path d="M6.41693 5.22559H5.86693C5.76567 5.22559 5.68359 5.30767 5.68359 5.40892C5.68359 5.51017 5.76567 5.59225 5.86693 5.59225H6.41693C6.51818 5.59225 6.60026 5.51017 6.60026 5.40892C6.60026 5.30767 6.51818 5.22559 6.41693 5.22559Z" fill="#1D3557"/>
<path d="M1.8334 8.8916H1.10007C0.897561 8.8916 0.733398 9.05576 0.733398 9.25827V9.62493C0.733398 9.82744 0.897561 9.9916 1.10007 9.9916H1.8334C2.0359 9.9916 2.20007 9.82744 2.20007 9.62493V9.25827C2.20007 9.05576 2.0359 8.8916 1.8334 8.8916ZM1.10007 9.62493V9.25827H1.8334V9.62493H1.10007Z" fill="#1D3557"/>
<path d="M4.03314 8.8916H3.48314C3.38189 8.8916 3.2998 8.97368 3.2998 9.07493C3.2998 9.17619 3.38189 9.25827 3.48314 9.25827H4.03314C4.13439 9.25827 4.21647 9.17619 4.21647 9.07493C4.21647 8.97368 4.13439 8.8916 4.03314 8.8916Z" fill="#1D3557"/>
<path d="M4.03314 9.625H3.48314C3.38189 9.625 3.2998 9.70708 3.2998 9.80833C3.2998 9.90959 3.38189 9.99167 3.48314 9.99167H4.03314C4.13439 9.99167 4.21647 9.90959 4.21647 9.80833C4.21647 9.70708 4.13439 9.625 4.03314 9.625Z" fill="#1D3557"/>
<path d="M6.41641 8.8916H5.68307C5.48057 8.8916 5.31641 9.05576 5.31641 9.25827V9.62493C5.31641 9.82744 5.48057 9.9916 5.68307 9.9916H6.41641C6.61891 9.9916 6.78307 9.82744 6.78307 9.62493V9.25827C6.78307 9.05576 6.61891 8.8916 6.41641 8.8916ZM5.68307 9.62493V9.25827H6.41641V9.62493H5.68307Z" fill="#1D3557"/>
<path d="M8.61712 8.8916H8.06712C7.96587 8.8916 7.88379 8.97368 7.88379 9.07493C7.88379 9.17619 7.96587 9.25827 8.06712 9.25827H8.61712C8.71837 9.25827 8.80046 9.17619 8.80046 9.07493C8.80046 8.97368 8.71837 8.8916 8.61712 8.8916Z" fill="#1D3557"/>
<path d="M8.61712 9.625H8.06712C7.96587 9.625 7.88379 9.70708 7.88379 9.80833C7.88379 9.90959 7.96587 9.99167 8.06712 9.99167H8.61712C8.71837 9.99167 8.80046 9.90959 8.80046 9.80833C8.80046 9.70708 8.71837 9.625 8.61712 9.625Z" fill="#1D3557"/>
</g>
<defs>
<clipPath id="clip0_808_513">
<rect width="11" height="11" fill="white"/>
</clipPath>
</defs>
</svg>
