<svg width="18" height="18" viewBox="0 0 18 18" fill="none" xmlns="http://www.w3.org/2000/svg">
<path fill-rule="evenodd" clip-rule="evenodd" d="M9 0.75C9.82845 0.75 10.5 1.42157 10.5 2.25H13.5C14.7427 2.25 15.75 3.25736 15.75 4.5V14.25C15.75 15.4927 14.7427 16.5 13.5 16.5H4.5C3.25736 16.5 2.25 15.4927 2.25 14.25V4.5C2.25 3.25736 3.25736 2.25 4.5 2.25H7.5C7.5 1.42157 8.17155 0.75 9 0.75ZM9.375 2.25C9.375 2.87132 9.8787 3.375 10.5 3.375H10.875V4.125H7.125V3.375H7.5C8.1213 3.375 8.625 2.87132 8.625 2.25C8.625 2.04289 8.79292 1.875 9 1.875C9.20708 1.875 9.375 2.04289 9.375 2.25ZM12 3.375V4.5C12 4.91421 11.6642 5.25 11.25 5.25H6.75C6.33579 5.25 6 4.91421 6 4.5V3.375H4.5C3.87868 3.375 3.375 3.87868 3.375 4.5V14.25C3.375 14.8713 3.87868 15.375 4.5 15.375H13.5C14.1213 15.375 14.625 14.8713 14.625 14.25V4.5C14.625 3.87868 14.1213 3.375 13.5 3.375H12Z" fill="#457B9D"/>
<path fill-rule="evenodd" clip-rule="evenodd" d="M5.4375 8.25C5.4375 7.93935 5.68934 7.6875 6 7.6875H12C12.3106 7.6875 12.5625 7.93935 12.5625 8.25C12.5625 8.56065 12.3106 8.8125 12 8.8125H6C5.68934 8.8125 5.4375 8.56065 5.4375 8.25Z" fill="#457B9D"/>
<path fill-rule="evenodd" clip-rule="evenodd" d="M5.4375 11.25C5.4375 10.9394 5.68934 10.6875 6 10.6875H9C9.31065 10.6875 9.5625 10.9394 9.5625 11.25C9.5625 11.5606 9.31065 11.8125 9 11.8125H6C5.68934 11.8125 5.4375 11.5606 5.4375 11.25Z" fill="#457B9D"/>
</svg>
