<svg width="12" height="11" viewBox="0 0 12 11" fill="none" xmlns="http://www.w3.org/2000/svg">
<g clip-path="url(#clip0_804_476)">
<path d="M8.13782 6.4712L6.46469 5.32092V2.97779C6.46469 2.7422 6.25694 2.55176 5.99992 2.55176C5.74291 2.55176 5.53516 2.7422 5.53516 2.97779V5.53396C5.53516 5.66815 5.60395 5.7947 5.72106 5.87479L7.58008 7.15287C7.66373 7.21039 7.76134 7.23808 7.85847 7.23808C8.00022 7.23808 8.13965 7.17971 8.23075 7.06724C8.38509 6.87933 8.34325 6.61222 8.13782 6.4712Z" fill="#1D3557"/>
<path d="M6 0C2.6914 0 0 2.46712 0 5.5C0 8.53288 2.6914 11 6 11C9.3086 11 12 8.53288 12 5.5C12 2.46712 9.3086 0 6 0ZM6 10.148C3.20449 10.148 0.929508 8.06255 0.929508 5.5C0.929508 2.93745 3.20449 0.852049 6 0.852049C8.79598 0.852049 11.0705 2.93745 11.0705 5.5C11.0705 8.06255 8.79551 10.148 6 10.148Z" fill="#1D3557"/>
</g>
<defs>
<clipPath id="clip0_804_476">
<rect width="12" height="11" fill="white"/>
</clipPath>
</defs>
</svg>
