<svg width="41" height="41" viewBox="0 0 41 41" fill="none" xmlns="http://www.w3.org/2000/svg">
<path d="M29.0382 1.6499V15.4266H0V1.97988C0 0.73833 0.73833 0 1.6499 0H27.3883C28.2999 0 29.0382 0.73833 29.0382 1.6499Z" fill="#50758D"/>
<path d="M29.0382 15.4268V35.8855C29.0382 36.7971 28.2999 37.5354 27.3883 37.5354H1.6499C0.73833 37.5354 0 36.7971 0 36.2155V15.4268H29.0382Z" fill="#50758D"/>
<path d="M4.125 10.9718V4.45473C4.125 3.81688 4.64208 3.2998 5.27993 3.2998H25.4087C26.0466 3.2998 26.5636 3.81688 26.5636 4.45473V10.9718C26.5636 11.6097 26.0466 12.1268 25.4087 12.1268H5.27993C4.64208 12.1268 4.125 11.6097 4.125 10.9718Z" fill="#2EDFFC"/>
<path d="M6.92983 12.1268H5.27993C4.64224 12.1268 4.125 11.6095 4.125 10.9718V4.45473C4.125 3.81705 4.64224 3.2998 5.27993 3.2998H6.92983C6.29214 3.2998 5.7749 3.81705 5.7749 4.45473V10.9718C5.7749 11.6095 6.29214 12.1268 6.92983 12.1268Z" fill="#27BDF3"/>
<path d="M26.4808 19.8815V26.4811H15.3027V18.7266H25.3259C25.9636 18.7266 26.4808 19.2438 26.4808 19.8815Z" fill="#F5F5F5"/>
<path d="M15.3031 18.7266V26.4811H4.125V20.0465C4.125 19.2438 4.64224 18.7266 5.27993 18.7266H15.3031Z" fill="#F5F5F5"/>
<path d="M15.3031 26.4805V34.235H5.27993C4.64224 34.235 4.125 33.7178 4.125 33.2451V26.4805H15.3031Z" fill="#F5F5F5"/>
<path d="M26.4808 26.4805V33.0801C26.4808 33.7178 25.9636 34.235 25.3259 34.235H15.3027V26.4805H26.4808Z" fill="#F5F5F5"/>
<path d="M25.3258 18.1074H15.3026H5.2795C4.26836 18.1074 3.50586 18.9409 3.50586 20.0461V26.4807V33.2452C3.50586 34.1022 4.33469 34.8539 5.2795 34.8539H15.3026H25.3258C26.3038 34.8539 27.0994 34.0582 27.0994 33.0803V26.4807V19.8811C27.0994 18.9031 26.3038 18.1074 25.3258 18.1074ZM25.862 19.8811V25.8619H15.9214V19.3448H25.3258C25.6214 19.3448 25.862 19.5854 25.862 19.8811ZM4.74328 20.0461C4.74328 19.6266 4.95876 19.3448 5.2795 19.3448H14.6839V25.8619H4.74328V20.0461ZM4.74328 33.2452V27.0994H14.6839V33.6165H5.2795C4.96973 33.6165 4.74328 33.356 4.74328 33.2452ZM25.862 33.0803C25.862 33.3759 25.6214 33.6165 25.3258 33.6165H15.9214V27.0994H25.862V33.0803Z" fill="#E6E6E6"/>
<path d="M12.3742 30.9767H7.91949C7.57772 30.9767 7.30078 30.6997 7.30078 30.358C7.30078 30.0162 7.57772 29.7393 7.91949 29.7393H12.3742C12.716 29.7393 12.9929 30.0162 12.9929 30.358C12.9929 30.6997 12.716 30.9767 12.3742 30.9767Z" fill="#2B597F"/>
<path d="M11.9614 21.9848H10.7652V20.7886C10.7652 20.4469 10.4883 20.1699 10.1465 20.1699C9.80472 20.1699 9.52778 20.4469 9.52778 20.7886V21.9848H8.3316C7.98983 21.9848 7.71289 22.2617 7.71289 22.6035C7.71289 22.9453 7.98983 23.2222 8.3316 23.2222H9.52778V24.4184C9.52778 24.7602 9.80472 25.0371 10.1465 25.0371C10.4883 25.0371 10.7652 24.7602 10.7652 24.4184V23.2222H11.9614C12.3032 23.2222 12.5801 22.9453 12.5801 22.6035C12.5801 22.2617 12.3032 21.9848 11.9614 21.9848Z" fill="#2B597F"/>
<path d="M21.3747 22.6032L22.2206 21.7574C22.4622 21.5156 22.4622 21.124 22.2206 20.8823C21.9789 20.6408 21.5872 20.6408 21.3455 20.8823L20.4997 21.7282L19.6539 20.8823C19.4122 20.6408 19.0205 20.6408 18.7789 20.8823C18.5372 21.124 18.5372 21.5157 18.7789 21.7574L19.6247 22.6032L18.7789 23.449C18.5372 23.6907 18.5372 24.0824 18.7789 24.324C18.8997 24.4448 19.0581 24.5052 19.2164 24.5052C19.3747 24.5052 19.5331 24.4448 19.654 24.324L20.4998 23.4782L21.3456 24.324C21.4665 24.4448 21.6249 24.5052 21.7832 24.5052C21.9415 24.5052 22.0999 24.4448 22.2207 24.324C22.4624 24.0823 22.4624 23.6906 22.2207 23.449L21.3747 22.6032Z" fill="#2B597F"/>
<path d="M23.3466 10.3529H22.1917C21.3957 10.3529 20.748 9.70525 20.748 8.90926V6.5169C20.748 5.72091 21.3957 5.07324 22.1917 5.07324H23.3466C24.1426 5.07324 24.7903 5.72091 24.7903 6.5169V8.90926C24.7903 9.70525 24.1426 10.3529 23.3466 10.3529ZM22.1917 6.31067C22.0779 6.31067 21.9855 6.40314 21.9855 6.5169V8.90926C21.9855 9.02302 22.0779 9.1155 22.1917 9.1155H23.3466C23.4604 9.1155 23.5529 9.02302 23.5529 8.90926V6.5169C23.5529 6.40314 23.4604 6.31067 23.3466 6.31067H22.1917Z" fill="#2B597F"/>
<path d="M29.0382 15.4266V13.5704H2.88732C2.4317 13.5704 2.06237 13.2011 2.06237 12.7455V1.97988C2.06237 0.73833 2.8007 0 3.71227 0H1.6499C0.73833 0 0 0.73833 0 1.97988V13.5704V15.4266V36.2153C0 36.7969 0.73833 37.5352 1.6499 37.5352H3.71227C2.8007 37.5352 2.06237 36.7969 2.06237 36.2153V16.2515C2.06237 15.7959 2.4317 15.4266 2.88732 15.4266H29.0382Z" fill="#2B597F"/>
<path d="M32.5028 25.4081C37.1956 25.4081 40.9998 24.5586 40.9998 23.5107C40.9998 22.4628 37.1956 21.6133 32.5028 21.6133C27.8101 21.6133 24.0059 22.4628 24.0059 23.5107C24.0059 24.5586 27.8101 25.4081 32.5028 25.4081Z" fill="#FAD207"/>
<path d="M40.9998 35.2051V39.103C40.9998 40.3404 37.196 41.0003 32.5028 41.0003C27.8097 41.0003 24.0059 40.3404 24.0059 39.103V35.2051C24.0059 36.4425 27.8097 37.1025 32.5028 37.1025C37.196 37.1025 40.9998 36.4425 40.9998 35.2051Z" fill="#FAD207"/>
<path d="M40.9998 31.3066V35.2045C40.9998 36.442 37.196 37.1019 32.5028 37.1019C27.8097 37.1019 24.0059 36.442 24.0059 35.2045V31.3066C24.0059 32.5441 27.8097 33.204 32.5028 33.204C37.196 33.204 40.9998 32.5441 40.9998 31.3066Z" fill="#F9D79C"/>
<path d="M40.9998 27.4092V31.3071C40.9998 32.5445 37.196 33.2045 32.5028 33.2045C27.8097 33.2045 24.0059 32.5445 24.0059 31.3071V27.4092C24.0059 28.6466 27.8097 29.3066 32.5028 29.3066C37.196 29.3066 40.9998 28.6466 40.9998 27.4092Z" fill="#FAD207"/>
<path d="M40.9998 23.5107V27.4086C40.9998 28.6461 37.196 29.306 32.5028 29.306C27.8097 29.306 24.0059 28.6461 24.0059 27.4086V23.5107C24.0059 24.7482 27.8097 25.4081 32.5028 25.4081C37.196 25.4081 40.9998 24.7482 40.9998 23.5107Z" fill="#EECD95"/>
<path d="M19.109 32.3918C18.9507 32.3918 18.7923 32.3314 18.6715 32.2106C18.4298 31.9689 18.4298 31.5772 18.6715 31.3356L21.4763 28.5308C21.718 28.2892 22.1097 28.2892 22.3513 28.5308C22.5929 28.7725 22.5929 29.1642 22.3513 29.4058L19.5465 32.2106C19.4257 32.3314 19.2673 32.3918 19.109 32.3918Z" fill="#2B597F"/>
<path d="M19.3043 29.4093C19.646 29.4093 19.923 29.1323 19.923 28.7906C19.923 28.4489 19.646 28.1719 19.3043 28.1719C18.9626 28.1719 18.6855 28.4489 18.6855 28.7906C18.6855 29.1323 18.9626 29.4093 19.3043 29.4093Z" fill="#2B597F"/>
<path d="M21.7789 32.5441C22.1206 32.5441 22.3976 32.2671 22.3976 31.9254C22.3976 31.5836 22.1206 31.3066 21.7789 31.3066C21.4372 31.3066 21.1602 31.5836 21.1602 31.9254C21.1602 32.2671 21.4372 32.5441 21.7789 32.5441Z" fill="#2B597F"/>
</svg>
