<svg width="18" height="17" viewBox="0 0 18 17" fill="none" xmlns="http://www.w3.org/2000/svg">
<g clip-path="url(#clip0_397_1292)">
<path d="M2.57143 7.62723H7.43303C7.78805 7.62723 8.07589 7.35538 8.07589 7.02009V2.42857C8.07589 1.08948 6.92233 0 5.50446 0H2.57143C1.15356 0 0 1.08948 0 2.42857V5.19866C0 6.53775 1.15356 7.62723 2.57143 7.62723ZM1.28571 2.42857C1.28571 1.75888 1.86234 1.21429 2.57143 1.21429H5.50446C6.21355 1.21429 6.79018 1.75888 6.79018 2.42857V6.41295H2.57143C1.86234 6.41295 1.28571 5.86836 1.28571 5.19866V2.42857Z" fill="#457B9D"/>
<path d="M15.4288 0H12.4957C11.0779 0 9.92432 1.08948 9.92432 2.42857V7.02009C9.92432 7.35538 10.2122 7.62723 10.5672 7.62723H15.4288C16.8466 7.62723 18.0002 6.53775 18.0002 5.19866V2.42857C18.0002 1.08948 16.8466 0 15.4288 0ZM16.7145 5.19866C16.7145 5.86836 16.1379 6.41295 15.4288 6.41295H11.21V2.42857C11.21 1.75888 11.7867 1.21429 12.4957 1.21429H15.4288C16.1379 1.21429 16.7145 1.75888 16.7145 2.42857V5.19866Z" fill="#457B9D"/>
<path d="M2.57143 17.0003H5.50446C6.92233 17.0003 8.07589 15.9108 8.07589 14.5717V9.98019C8.07589 9.6449 7.78805 9.37305 7.43303 9.37305H2.57143C1.15356 9.37305 0 10.4625 0 11.8016V14.5717C0 15.9108 1.15356 17.0003 2.57143 17.0003ZM1.28571 11.8016C1.28571 11.1319 1.86234 10.5873 2.57143 10.5873H6.79018V14.5717C6.79018 15.2414 6.21355 15.786 5.50446 15.786H2.57143C1.86234 15.786 1.28571 15.2414 1.28571 14.5717V11.8016Z" fill="#457B9D"/>
<path d="M15.4288 9.37305H10.5672C10.2122 9.37305 9.92432 9.6449 9.92432 9.98019V14.5717C9.92432 15.9108 11.0779 17.0003 12.4957 17.0003H15.4288C16.8466 17.0003 18.0002 15.9108 18.0002 14.5717V11.8016C18.0002 10.4625 16.8466 9.37305 15.4288 9.37305ZM16.7145 14.5717C16.7145 15.2414 16.1379 15.786 15.4288 15.786H12.4957C11.7867 15.786 11.21 15.2414 11.21 14.5717V10.5873H15.4288C16.1379 10.5873 16.7145 11.1319 16.7145 11.8016V14.5717Z" fill="#457B9D"/>
</g>
<defs>
<clipPath id="clip0_397_1292">
<rect width="18" height="17" fill="white"/>
</clipPath>
</defs>
</svg>
