<svg width="25" height="25" viewBox="0 0 25 25" fill="none" xmlns="http://www.w3.org/2000/svg">
<g clip-path="url(#clip0_408_1773)">
<path d="M22.9004 11.3356C22.3254 11.3356 21.8588 10.8691 21.8588 10.294C21.8588 7.37214 20.7213 4.62632 18.6556 2.55952C18.2484 2.1523 18.2484 1.49407 18.6556 1.08666C19.0629 0.679445 19.7213 0.679445 20.1285 1.08666C22.588 3.546 23.942 6.81596 23.942 10.294C23.942 10.8691 23.4755 11.3356 22.9004 11.3356Z" fill="#E63946"/>
<path d="M2.06699 11.3356C1.49212 11.3356 1.02539 10.8691 1.02539 10.294C1.02539 6.81596 2.37961 3.546 4.83894 1.08666C5.24616 0.679445 5.90458 0.679445 6.3118 1.08666C6.71921 1.49407 6.71921 2.1523 6.3118 2.55952C4.24614 4.62518 3.10879 7.37214 3.10879 10.294C3.10879 10.8691 2.64206 11.3356 2.06699 11.3356Z" fill="#E63946"/>
<path d="M22.2536 17.6178C20.6785 16.2865 19.7754 14.3406 19.7754 12.2791V9.375C19.7754 5.70946 17.0525 2.67506 13.5254 2.16675V1.0416C13.5254 0.465584 13.0587 0 12.4838 0C11.9087 0 11.442 0.465584 11.442 1.0416V2.16675C7.91399 2.67506 5.19202 5.70946 5.19202 9.375V12.2791C5.19202 14.3406 4.28889 16.2865 2.70464 17.626C2.29933 17.9729 2.06702 18.4771 2.06702 19.0104C2.06702 20.0157 2.8847 20.8334 3.89006 20.8334H21.0776C22.0827 20.8334 22.9004 20.0157 22.9004 19.0104C22.9004 18.4771 22.6681 17.9729 22.2536 17.6178Z" fill="#E63946"/>
<path d="M12.4838 25C14.3702 25 15.9483 23.6551 16.3109 21.875H8.65674C9.01913 23.6551 10.5973 25 12.4838 25Z" fill="#E63946"/>
</g>
<defs>
<clipPath id="clip0_408_1773">
<rect width="25" height="25" fill="white"/>
</clipPath>
</defs>
</svg>
