<svg width="36" height="36" viewBox="0 0 36 36" fill="none" xmlns="http://www.w3.org/2000/svg">
<g clip-path="url(#clip0_283_441)">
<path d="M32.8375 14.4963C32.495 12.1311 30.4165 10.4519 28.1116 10.5442L27.0498 3.21199C27.0087 2.92816 26.7921 2.76634 26.5082 2.80745L24.0011 3.17053C23.7172 3.21163 23.5554 3.42826 23.5965 3.71208L23.7335 4.65818C19.6715 11.9597 11.7602 10.6906 7.85512 11.7391C4.45603 12.2796 2.06924 15.4748 2.56248 18.8807C3.05573 22.2866 6.25089 24.6734 9.65683 24.1802L9.89335 24.1459L10.7428 30.0117C10.9552 31.4782 12.3091 32.4895 13.7755 32.2771C15.242 32.0648 16.2533 30.7109 16.041 29.2444L15.1915 23.3787C15.7255 23.3979 21.8327 21.5475 26.8917 26.4656L27.0287 27.4117C27.0698 27.6956 27.2864 27.8574 27.5702 27.8163L30.0774 27.4532C30.3612 27.4121 30.523 27.1955 30.4819 26.9116L29.4269 19.6267C31.6633 19.0614 33.18 16.8615 32.8375 14.4963ZM15.0949 29.3815C15.2319 30.3276 14.5846 31.194 13.6385 31.331C12.6924 31.4681 11.8259 30.8208 11.6889 29.8747L10.8394 24.0089L14.1981 23.5225L15.0476 29.3883L15.0949 29.3815ZM3.50858 18.7437C3.09069 15.8581 5.11339 13.1503 7.99898 12.7325L10.3169 12.3968L11.8377 22.8984L9.56712 23.2272C6.63423 23.652 3.92647 21.6293 3.50858 18.7437ZM12.7838 22.7614L11.263 12.2598C13.1141 11.7019 19.7263 12.3381 23.9528 6.17193L26.6862 25.0465C20.8299 20.2922 14.6698 22.7781 12.7838 22.7614ZM29.4742 26.6229L27.9131 26.849C25.3441 9.10972 26.9472 20.179 24.618 4.09542L26.179 3.86935L29.4742 26.6229ZM29.2899 18.6806L28.2486 11.4903C30.0332 11.4734 31.6242 12.7884 31.8914 14.6333C32.1586 16.4782 31.0059 18.1906 29.2899 18.6806Z" fill="black"/>
</g>
<defs>
<clipPath id="clip0_283_441">
<rect width="31.5468" height="31.5468" fill="white" transform="translate(0 4.52148) rotate(-8.24022)"/>
</clipPath>
</defs>
</svg>
