<svg width="20" height="20" viewBox="0 0 20 20" fill="none" xmlns="http://www.w3.org/2000/svg">
<g clip-path="url(#clip0_397_1249)">
<path d="M5.04331 12.9032C4.58639 12.4463 3.84299 12.4464 3.38612 12.9032C2.92928 13.36 2.9292 14.1034 3.38608 14.5603C3.84303 15.0171 4.58643 15.0171 5.04331 14.5603C5.50018 14.1034 5.50022 13.36 5.04331 12.9032ZM4.62897 14.146C4.40053 14.3744 4.02881 14.3744 3.80038 14.146C3.57202 13.9175 3.57194 13.5459 3.80042 13.3175C4.02881 13.0891 4.40053 13.0891 4.62897 13.3174C4.85741 13.5458 4.85741 13.9176 4.62897 14.146Z" fill="#457B9D"/>
<path d="M6.74576 11.4577L5.99576 10.7079C5.88139 10.5935 5.69592 10.5935 5.58154 10.7079C5.46713 10.8223 5.46713 11.0077 5.5815 11.1221L6.33143 11.8719C6.48904 12.0295 6.48717 12.2879 6.32729 12.4477C6.1674 12.6076 5.90904 12.6095 5.75143 12.4519L5.00154 11.702C4.88717 11.5876 4.70162 11.5877 4.58725 11.7021C4.47287 11.8164 4.47287 12.0019 4.58725 12.1163L5.33713 12.8662C5.72326 13.2522 6.35322 13.2504 6.74162 12.862C7.12998 12.4737 7.13186 11.8438 6.74576 11.4577Z" fill="#457B9D"/>
<path d="M8.24273 10.9466L7.20707 9.91089L7.46945 9.64851C7.58386 9.5341 7.5839 9.34867 7.46941 9.23421C7.35503 9.11984 7.16957 9.11984 7.05515 9.23425L6.11609 10.1732C6.00167 10.2877 6.00167 10.4731 6.11605 10.5875C6.23054 10.7019 6.41597 10.7019 6.53039 10.5875L6.79277 10.3251L7.82847 11.3608C7.94293 11.4752 8.12835 11.4752 8.24277 11.3608C8.35714 11.2464 8.35718 11.061 8.24273 10.9466Z" fill="#457B9D"/>
<path d="M9.88361 9.30566C9.76912 9.19133 9.58369 9.19129 9.46927 9.3057L9.04115 9.73379L8.00541 8.69809C7.89103 8.58371 7.70556 8.58371 7.59119 8.69809C7.47677 8.8125 7.47677 8.99797 7.59115 9.1123L8.83408 10.3551C8.94853 10.4696 9.13396 10.4695 9.24833 10.3552L9.88361 9.71992C9.99802 9.60551 9.99806 9.42008 9.88361 9.30566Z" fill="#457B9D"/>
<path d="M11.0784 8.11089C10.964 7.9964 10.7785 7.9964 10.6641 8.11081L10.236 8.53886L10.0289 8.33179L10.2912 8.0694C10.4057 7.95499 10.4056 7.76956 10.2912 7.65515C10.1768 7.54069 9.99137 7.54073 9.87695 7.65515L9.61457 7.91753L9.40742 7.71038L9.83555 7.28229C9.95 7.16784 9.95 6.98245 9.83547 6.86804C9.72109 6.75366 9.5357 6.75358 9.42125 6.86804L8.78598 7.50327C8.6716 7.61765 8.6716 7.80312 8.78598 7.91749L10.0289 9.1603C10.1433 9.27476 10.3288 9.27472 10.4432 9.1603L11.0785 8.52511C11.1929 8.41069 11.1929 8.2253 11.0784 8.11089Z" fill="#457B9D"/>
<path d="M12.0797 7.10964L11.0439 6.07402L11.3064 5.8116C11.4208 5.69718 11.4208 5.51179 11.3063 5.3973C11.1919 5.28292 11.0065 5.28292 10.8921 5.39734L9.95304 6.33632C9.83858 6.45078 9.83858 6.63625 9.95296 6.75058C10.0675 6.86503 10.2529 6.86503 10.3673 6.75058L10.6297 6.4882L11.6654 7.5239C11.7799 7.63835 11.9653 7.63828 12.0797 7.5239C12.1941 7.40953 12.1942 7.22406 12.0797 7.10964Z" fill="#457B9D"/>
<path d="M19.5406 7.9086C19.246 7.19258 18.8233 6.54492 18.2838 5.98438C18.0186 5.7082 17.7256 5.45586 17.4139 5.23356C17.0998 5.01012 16.7631 4.8152 16.4134 4.65469C16.3463 4.62387 16.2786 4.59477 16.2106 4.56649C16.2105 4.5041 16.2104 4.445 16.2103 4.38992C16.2088 3.74469 15.9433 3.1243 15.4623 2.64258C14.9808 2.16192 14.3604 1.89637 13.7151 1.89488C13.3061 1.89402 12.6872 1.89488 11.9705 1.89586C11.5763 1.89645 11.1599 1.89703 10.7484 1.89738C10.0239 1.89797 9.34267 2.18043 8.83024 2.69277L0.846768 10.6757C-0.282256 11.8047 -0.282256 13.6417 0.846768 14.7706L3.33372 17.2574C3.88064 17.8043 4.60782 18.1055 5.3813 18.1055C6.15478 18.1055 6.88196 17.8043 7.42888 17.2574L15.4123 9.27453C15.9247 8.76215 16.2072 8.08094 16.2078 7.35645C16.2081 6.945 16.2087 6.52863 16.2093 6.13442C16.2098 5.79844 16.2102 5.48438 16.2105 5.20293C18.112 6.08879 19.4143 8.01406 19.414 10.2449C19.4136 11.7301 18.8354 13.127 17.785 14.1773C16.7341 15.2278 15.3375 15.8063 13.8523 15.8063H13.8504C12.8397 15.8063 11.7842 15.4977 10.879 14.9375C10.8325 14.9086 10.7794 14.8938 10.7251 14.8938C10.6228 14.8938 10.5294 14.9457 10.4755 15.0325C10.3907 15.17 10.4333 15.3508 10.5708 15.436C11.0592 15.7379 11.5822 15.9731 12.126 16.1355C12.6956 16.3059 13.2765 16.3922 13.8523 16.3922C14.682 16.3922 15.4871 16.2297 16.245 15.909C16.6095 15.7551 16.9607 15.5645 17.2896 15.3422C17.615 15.1223 17.9209 14.8699 18.1995 14.5918C18.4776 14.3137 18.73 14.0074 18.9499 13.682C19.1722 13.3531 19.3628 13.002 19.5167 12.6379C19.8375 11.8797 20 11.075 20 10.2449C20 9.43629 19.8453 8.64996 19.5406 7.9086ZM15.6233 6.13356C15.6227 6.52789 15.6222 6.94438 15.6218 7.35598C15.6213 7.92414 15.3998 8.45836 14.9979 8.86016L7.01454 16.843C6.11399 17.7436 4.64864 17.7436 3.7481 16.843L1.26114 14.3563C0.824892 13.92 0.584619 13.34 0.584619 12.7231C0.584619 12.1063 0.824853 11.5263 1.2611 11.09L9.24458 3.10719C9.64645 2.70535 10.1807 2.48379 10.7489 2.48336C11.1605 2.48301 11.577 2.48242 11.9714 2.48184C12.4769 2.4811 12.9337 2.48047 13.3022 2.48047C13.4557 2.48047 13.5938 2.48059 13.7138 2.48086C14.2032 2.48195 14.6771 2.68668 15.048 3.05695C15.4098 3.41926 15.6129 3.87961 15.6234 4.3566C15.324 4.2666 15.0181 4.19949 14.7071 4.15633C14.6009 3.70656 14.1964 3.3707 13.7147 3.3707C13.1523 3.3707 12.6948 3.8282 12.6948 4.39051C12.6948 4.95281 13.1523 5.41028 13.7147 5.41028C14.1531 5.41028 14.5277 5.13223 14.6716 4.74328C14.9999 4.79129 15.3184 4.86777 15.6248 4.96988C15.6245 5.3059 15.624 5.70176 15.6233 6.13356ZM13.9828 4.68863H14.029C13.9498 4.77199 13.8383 4.82434 13.7146 4.82434C13.4754 4.82434 13.2807 4.62973 13.2807 4.39051C13.2807 4.15125 13.4754 3.95664 13.7146 3.95664C13.8434 3.95664 13.9589 4.01336 14.0384 4.10274H13.9828C13.8215 4.10274 13.6899 4.23399 13.6899 4.3957C13.6898 4.55703 13.8215 4.68863 13.9828 4.68863Z" fill="#457B9D"/>
</g>
<defs>
<clipPath id="clip0_397_1249">
<rect width="20" height="20" fill="white"/>
</clipPath>
</defs>
</svg>
