<svg width="17" height="17" viewBox="0 0 17 17" fill="none" xmlns="http://www.w3.org/2000/svg">
<g clip-path="url(#clip0_397_1271)">
<path d="M8.5 17C3.80552 17 0 13.1945 0 8.5C0 3.80552 3.80552 0 8.5 0C13.1945 0 17 3.80552 17 8.5C16.9944 13.1921 13.1921 16.9944 8.5 17ZM8.5 1.0625C4.39241 1.0625 1.0625 4.39241 1.0625 8.5C1.0625 12.6076 4.39241 15.9375 8.5 15.9375C12.6076 15.9375 15.9375 12.6076 15.9375 8.5C15.9331 4.39423 12.6058 1.06691 8.5 1.0625Z" fill="#457B9D"/>
<path d="M8.49985 9.5625C6.96187 9.48403 5.77564 8.17899 5.8436 6.64062C5.77564 5.10226 6.96187 3.79722 8.49985 3.71875C10.0378 3.79722 11.2241 5.10226 11.1561 6.64062C11.2241 8.17899 10.0378 9.48403 8.49985 9.5625ZM8.49985 4.78125C7.54967 4.86115 6.83969 5.68941 6.9061 6.64062C6.83969 7.59184 7.54967 8.4201 8.49985 8.5C9.45003 8.4201 10.16 7.59184 10.0936 6.64062C10.16 5.68941 9.45003 4.86115 8.49985 4.78125Z" fill="#457B9D"/>
<path d="M5.3125 12.2188C5.01912 12.2188 4.78125 11.9809 4.78125 11.6875C4.78125 9.92955 6.44932 8.5 8.5 8.5C8.79338 8.5 9.03125 8.73787 9.03125 9.03125C9.03125 9.32463 8.79338 9.5625 8.5 9.5625C7.0353 9.5625 5.84375 10.5155 5.84375 11.6875C5.84375 11.9809 5.60588 12.2188 5.3125 12.2188Z" fill="#457B9D"/>
<path d="M10.0936 13.2816C9.95271 13.2816 9.81757 13.2255 9.71796 13.1259L8.65546 12.0634C8.45416 11.855 8.45702 11.5236 8.66194 11.3187C8.86687 11.1138 9.19825 11.1109 9.40668 11.3122L10.0936 11.9991L12.9055 9.1872C13.1139 8.9859 13.4453 8.98876 13.6502 9.19368C13.8551 9.39861 13.858 9.72999 13.6567 9.93842L10.4692 13.1259C10.3696 13.2255 10.2344 13.2816 10.0936 13.2816Z" fill="#457B9D"/>
</g>
<defs>
<clipPath id="clip0_397_1271">
<rect width="17" height="17" fill="white"/>
</clipPath>
</defs>
</svg>
