<svg width="34" height="34" viewBox="0 0 34 34" fill="none" xmlns="http://www.w3.org/2000/svg">
<path d="M29.7132 2.83333H33.9632V0H29.7132C28.586 0 27.505 0.447767 26.708 1.2448C25.9109 2.04183 25.4632 3.12283 25.4632 4.25V23.0506L21.6084 24.2916L17.6219 11.7682L0.0906761 17.3457L3.91568 29.9852L0.0325928 31.2347L0.902426 33.9263L22.814 26.8727C22.5953 27.7123 22.5713 28.5908 22.744 29.441C22.9168 30.2913 23.2816 31.0908 23.8105 31.7785C24.3395 32.4662 25.0187 33.0238 25.7962 33.4088C26.5737 33.7939 27.4289 33.9961 28.2965 34C35.768 33.8045 35.7666 22.8608 28.2965 22.6667V4.25C28.2965 3.87428 28.4458 3.51394 28.7114 3.24827C28.9771 2.98259 29.3375 2.83333 29.7132 2.83333ZM3.61393 19.1972L15.7831 15.3269L18.9097 25.16L6.61868 29.1167L3.61393 19.1972ZM31.1298 28.3333C31.1298 29.0848 30.8313 29.8054 30.3 30.3368C29.7686 30.8682 29.048 31.1667 28.2965 31.1667C27.5451 31.1667 26.8244 30.8682 26.293 30.3368C25.7617 29.8054 25.4632 29.0848 25.4632 28.3333C25.4632 27.5819 25.7617 26.8612 26.293 26.3299C26.8244 25.7985 27.5451 25.5 28.2965 25.5C29.048 25.5 29.7686 25.7985 30.3 26.3299C30.8313 26.8612 31.1298 27.5819 31.1298 28.3333ZM12.8747 18.7921L13.7318 21.4922L8.82159 23.0506L7.96309 20.3504L12.8747 18.7921Z" fill="black"/>
</svg>
