<svg width="32" height="19" viewBox="0 0 32 19" fill="none" xmlns="http://www.w3.org/2000/svg">
<path d="M27.9794 14.825H13.115C12.5976 14.825 12.1782 14.4056 12.1782 13.8883V0.936771C12.1782 0.419416 12.5976 0 13.115 0H27.9794C28.4967 0 28.9161 0.419416 28.9161 0.936771V13.8883C28.9161 14.4056 28.4967 14.825 27.9794 14.825Z" fill="#10BBC2"/>
<path d="M27.4915 0.936771V13.8883C27.4915 14.4056 27.0721 14.825 26.5547 14.825H27.9795C28.4968 14.825 28.9161 14.4055 28.9161 13.8883V0.936771C28.9161 0.419416 28.4967 0 27.9794 0H26.5548C27.0721 0 27.4915 0.419416 27.4915 0.936771Z" fill="#A8DADC"/>
<path d="M21.9126 4.75003H19.1818C18.9668 4.75003 18.7926 4.5758 18.7926 4.36085V0H22.3018V4.36085C22.3018 4.5758 22.1275 4.75003 21.9126 4.75003Z" fill="#26457D"/>
<path d="M20.9985 0V4.36085C20.9985 4.5758 20.8243 4.75003 20.6093 4.75003H21.9126C22.1275 4.75003 22.3018 4.5758 22.3018 4.36085V0H20.9985Z" fill="#21386B"/>
<path d="M24.3041 12.1247C24.1806 12.1247 24.0573 12.0767 23.9645 11.9814C23.7819 11.7938 23.786 11.4938 23.9735 11.3113L25.1929 10.1243L23.9735 8.9374C23.786 8.75489 23.7819 8.45494 23.9645 8.26734C24.1469 8.07999 24.4469 8.07564 24.6345 8.25833L26.2028 9.78476C26.2944 9.87393 26.3461 9.9964 26.3461 10.1243C26.3461 10.2521 26.2944 10.3746 26.2028 10.4638L24.6345 11.9903C24.5424 12.08 24.4232 12.1247 24.3041 12.1247Z" fill="#F9F6F6"/>
<path d="M18.7176 11.6869H15.2641C15.0024 11.6869 14.7903 11.4748 14.7903 11.2131C14.7903 10.9514 15.0024 10.7393 15.2641 10.7393H18.7176C18.9793 10.7393 19.1914 10.9514 19.1914 11.2131C19.1914 11.4748 18.9793 11.6869 18.7176 11.6869Z" fill="#26457D"/>
<path d="M7.36409 19.0001H0.2856C0.127867 19.0001 0 18.8722 0 18.7145V6.6899C0 6.53216 0.127867 6.4043 0.2856 6.4043H7.36409C7.52183 6.4043 7.64969 6.53216 7.64969 6.6899V18.7145C7.64976 18.8722 7.52189 19.0001 7.36409 19.0001Z" fill="#80B4FB"/>
<path d="M5.98276 6.4043V19.0001H7.36415C7.52188 19.0001 7.64975 18.8723 7.64975 18.7145V6.68996C7.64975 6.53223 7.52188 6.40436 7.36415 6.40436H5.98276V6.4043Z" fill="#61A2F9"/>
<path d="M10.6346 16.9173L11.4633 17.1564C18.2213 19.1061 25.5059 17.5997 30.9363 13.1295C31.5303 12.6405 31.557 11.7401 30.9929 11.2169L30.9672 11.1931C30.392 10.6595 29.5403 10.5735 28.8761 10.9776L26.1517 12.6349C23.3936 14.3127 20.0322 14.6768 16.9788 13.6287C15.7185 13.1961 15.4802 11.5169 16.5705 10.7508L19.4039 8.75968C19.9382 8.38417 20.0756 7.65107 19.7135 7.10753C19.4385 6.6948 18.9384 6.49303 18.4539 6.59931L10.6345 8.31475L9.34465 9.70761V15.6189L10.6346 16.9173Z" fill="#F1D0A5"/>
<path d="M16.5704 10.751L19.4039 8.75979C19.9239 8.3944 20.0665 7.6908 19.7401 7.15234C19.6564 7.29045 19.5443 7.41415 19.4039 7.51282L16.5704 9.50393C15.8973 9.97701 15.7312 10.798 15.9989 11.4589C16.1104 11.1886 16.2993 10.9415 16.5704 10.751Z" fill="#F1B986"/>
<path d="M31.235 11.5245C31.1604 11.6571 31.0618 11.7794 30.9363 11.8827C26.3266 15.6773 20.3806 17.3359 14.5548 16.5579C13.0274 16.3538 11.887 15.0498 11.887 13.5088V8.04004L10.6346 8.31479V15.6705V16.9174L11.4632 17.1565C11.6039 17.1971 11.7449 17.2356 11.8861 17.2733C11.8864 17.2733 11.8867 17.2734 11.8869 17.2735C18.5244 19.0416 25.6191 17.5065 30.9363 13.1296C31.4258 12.7268 31.529 12.0449 31.235 11.5245Z" fill="#F1B986"/>
<path d="M7.64977 17.7979H10.1311C10.4092 17.7979 10.6346 17.5725 10.6346 17.2944V8.10903C10.6346 7.83091 10.4092 7.60547 10.1311 7.60547H7.64977V17.7979Z" fill="#F9F6F6"/>
<path d="M10.1001 7.60547H8.90218C9.29357 7.60547 9.61087 7.88708 9.61087 8.23456V17.1689C9.61087 17.5163 9.29357 17.798 8.90218 17.798H10.1001C10.3953 17.798 10.6346 17.5855 10.6346 17.3235V8.0799C10.6346 7.81784 10.3953 7.60547 10.1001 7.60547Z" fill="#DDDAEC"/>
</svg>
