<svg width="32" height="32" viewBox="0 0 32 32" fill="none" xmlns="http://www.w3.org/2000/svg">
<path d="M9 23.9V28.7C9 29 9.2 29.2 9.5 29.2H22.6C22.9 29.2 23.1 29 23.1 28.7V23.9V20.9C23.1 20.6 22.9 20.4 22.6 20.4H9.5C9.2 20.4 9 20.6 9 20.9V23.9ZM10.8 22.1H21.3V23.8H10.8V22.1ZM10.8 25.6H21.3V27.3H10.8V25.6Z" fill="#10BBC2"/>
<path d="M23 8.1V2.9H9V8.1V11.6H23V8.1Z" fill="#10BBC2"/>
<path d="M26.5 8.1H24.7V11.6V13.4H7.3V11.6V8.1H5.5C3.6 8.1 2 9.7 2 11.6V20.4C2 22.3 3.6 23.9 5.5 23.9H7.3V20.4V18.6H24.8V20.4V23.9H26.6C28.5 23.9 30.1 22.3 30.1 20.4V11.7C30 9.7 28.4 8.1 26.5 8.1Z" fill="#10BBC2"/>
</svg>
