<svg width="12" height="12" viewBox="0 0 12 12" fill="none" xmlns="http://www.w3.org/2000/svg">
<g clip-path="url(#clip0_806_498)">
<path d="M0.638125 3.15134L5.88812 0.526344C5.9585 0.491219 6.0415 0.491219 6.11175 0.526344L11.3618 3.15134C11.4465 3.19372 11.5 3.28022 11.5 3.37497V8.62497C11.5 8.71972 11.4465 8.80622 11.3619 8.84859L6.11188 11.4736C6.07662 11.4912 6.03837 11.5 6 11.5C5.96163 11.5 5.92338 11.4912 5.88812 11.4736L0.638125 8.84859C0.5535 8.80622 0.5 8.71972 0.5 8.62497V3.37497C0.5 3.28022 0.5535 3.19372 0.638125 3.15134ZM6 1.02947L1.309 3.37497L2.3125 3.87672L7.00338 1.53122L6 1.02947ZM4.3125 4.87672L9.0035 2.53122L7.5625 1.81072L2.8715 4.15622L4.3125 4.87672ZM4.125 5.34197L2.625 4.59197V6.45159L3.10475 6.10897C3.15912 6.07009 3.22713 6.05472 3.293 6.06609C3.35888 6.07772 3.4175 6.11509 3.45562 6.17009L4.125 7.13722V5.34197ZM9.5625 2.81072L4.87162 5.15622L6 5.72047L10.691 3.37497L9.5625 2.81072ZM11 3.77947L6.25 6.15447V10.8453L11 8.47034V3.77947ZM5.75 10.8455V6.15447L4.625 5.59197V7.93747C4.625 8.04684 4.554 8.14347 4.44963 8.17609C4.42487 8.18384 4.39988 8.18747 4.375 8.18747C4.2945 8.18747 4.217 8.14847 4.16937 8.07984L3.18875 6.66347L2.52013 7.14097C2.44388 7.19534 2.34363 7.20272 2.2605 7.15972C2.17737 7.11697 2.125 7.03109 2.125 6.93747V4.34197L1 3.77947V8.47034L5.75 10.8455Z" fill="#1D3557"/>
</g>
<defs>
<clipPath id="clip0_806_498">
<rect width="12" height="12" fill="white" transform="matrix(-1 0 0 1 12 0)"/>
</clipPath>
</defs>
</svg>
