<svg width="21" height="21" viewBox="0 0 21 21" fill="none" xmlns="http://www.w3.org/2000/svg">
<path fill-rule="evenodd" clip-rule="evenodd" d="M4.375 9.625C4.375 6.72962 6.72962 4.375 9.625 4.375C12.5204 4.375 14.875 6.72962 14.875 9.625C14.875 12.5204 12.5204 14.875 9.625 14.875C6.72962 14.875 4.375 12.5204 4.375 9.625ZM18.1186 16.8814L15.148 13.9099C16.0694 12.7251 16.625 11.2402 16.625 9.625C16.625 5.76538 13.4846 2.625 9.625 2.625C5.76538 2.625 2.625 5.76538 2.625 9.625C2.625 13.4846 5.76538 16.625 9.625 16.625C11.2403 16.625 12.7251 16.0694 13.9099 15.148L16.8814 18.1186C17.052 18.2893 17.276 18.375 17.5 18.375C17.724 18.375 17.948 18.2893 18.1186 18.1186C18.4608 17.7765 18.4608 17.2235 18.1186 16.8814Z" fill="#A19292"/>
</svg>
