<svg width="18" height="18" viewBox="0 0 18 18" fill="none" xmlns="http://www.w3.org/2000/svg">
<g clip-path="url(#clip0_397_1290)">
<path d="M17.0428 4.72702L9.16781 0.789516C9.06225 0.736828 8.93775 0.736828 8.83238 0.789516L0.957375 4.72702C0.83025 4.79058 0.75 4.92033 0.75 5.06245V12.9375C0.75 13.0796 0.83025 13.2093 0.957188 13.2729L8.83219 17.2104C8.88506 17.2368 8.94244 17.25 9 17.25C9.05756 17.25 9.11494 17.2368 9.16781 17.2104L17.0428 13.2729C17.1698 13.2093 17.25 13.0796 17.25 12.9375V5.06245C17.25 4.92033 17.1698 4.79058 17.0428 4.72702ZM9 1.5442L16.0365 5.06245L14.5313 5.81508L7.49494 2.29683L9 1.5442ZM11.5313 7.31508L4.49475 3.79683L6.65625 2.71608L13.6928 6.23433L11.5313 7.31508ZM11.8125 8.01295L14.0625 6.88795V9.67739L13.3429 9.16345C13.2613 9.10514 13.1593 9.08208 13.0605 9.09914C12.9617 9.11658 12.8738 9.17264 12.8166 9.25514L11.8125 10.7058V8.01295ZM3.65625 4.21608L10.6926 7.73433L9 8.5807L1.9635 5.06245L3.65625 4.21608ZM1.5 5.6692L8.625 9.2317V16.268L1.5 12.7055V5.6692ZM9.375 16.2682V9.2317L11.0625 8.38795V11.9062C11.0625 12.0703 11.169 12.2152 11.3256 12.2641C11.3627 12.2758 11.4002 12.2812 11.4375 12.2812C11.5583 12.2812 11.6745 12.2227 11.7459 12.1198L13.2169 9.9952L14.2198 10.7115C14.3342 10.793 14.4846 10.8041 14.6093 10.7396C14.7339 10.6755 14.8125 10.5466 14.8125 10.4062V6.51295L16.5 5.6692V12.7055L9.375 16.2682Z" fill="#457B9D"/>
</g>
<defs>
<clipPath id="clip0_397_1290">
<rect width="18" height="18" fill="white"/>
</clipPath>
</defs>
</svg>
