<svg width="14" height="14" viewBox="0 0 14 14" fill="none" xmlns="http://www.w3.org/2000/svg">
<g clip-path="url(#clip0_397_1297)">
<path d="M13.5998 1.91376C13.3938 1.70746 13.0597 1.7071 12.8537 1.91289L6.52383 8.22607L4.24002 5.74563C4.04268 5.53142 3.70903 5.51753 3.49447 5.71485C3.28007 5.91219 3.26634 6.246 3.46368 6.4604L6.11947 9.34465C6.21673 9.45036 6.35285 9.51174 6.49637 9.51472C6.50023 9.51489 6.50395 9.51489 6.50764 9.51489C6.64712 9.51489 6.7813 9.45949 6.88014 9.361L13.5987 2.66C13.8052 2.45424 13.8056 2.12007 13.5998 1.91376Z" fill="#457B9D"/>
<path d="M13.4723 6.47235C13.1809 6.47235 12.9447 6.70854 12.9447 7C12.9447 10.2781 10.2781 12.9447 7 12.9447C3.72214 12.9447 1.05528 10.2781 1.05528 7C1.05528 3.72214 3.72214 1.05528 7 1.05528C7.29143 1.05528 7.52765 0.819082 7.52765 0.527652C7.52765 0.236195 7.29143 0 7 0C3.14016 0 0 3.14016 0 7C0 10.8597 3.14016 14 7 14C10.8597 14 14 10.8597 14 7C14 6.70857 13.7638 6.47235 13.4723 6.47235Z" fill="#457B9D"/>
</g>
<defs>
<clipPath id="clip0_397_1297">
<rect width="14" height="14" fill="white"/>
</clipPath>
</defs>
</svg>
