<!DOCTYPE svg PUBLIC "-//W3C//DTD SVG 1.1//EN" "http://www.w3.org/Graphics/SVG/1.1/DTD/svg11.dtd">
<!-- Uploaded to: SVG Repo, www.svgrepo.com, Transformed by: SVG Repo Mixer Tools -->
<svg fill="#000000" width="120px" height="120px" viewBox="0 0 24.00 24.00" id="taka-square-2" data-name="Flat Line" xmlns="http://www.w3.org/2000/svg" class="icon flat-line" stroke="#000000">
<g id="SVGRepo_bgCarrier" stroke-width="0"/>
<g id="SVGRepo_tracerCarrier" stroke-linecap="round" stroke-linejoin="round"/>
<g id="SVGRepo_iconCarrier">
<rect id="secondary" x="3" y="3" width="18" height="18" rx="1" transform="translate(24) rotate(90)" style="fill: #2ca9bc; stroke-width:1.2;"/>
<path id="primary" d="M8,7H8a2,2,0,0,1,2,2v5a3,3,0,0,0,3,3h0a3,3,0,0,0,3-3V12" style="fill: none; stroke: #000000; stroke-linecap: round; stroke-linejoin: round; stroke-width:1.2;"/>
<path id="primary-2" data-name="primary" d="M8,11h4m9,9V4a1,1,0,0,0-1-1H4A1,1,0,0,0,3,4V20a1,1,0,0,0,1,1H20A1,1,0,0,0,21,20Z" style="fill: none; stroke: #000000; stroke-linecap: round; stroke-linejoin: round; stroke-width:1.2;"/>
</g>
</svg>