<svg width="43" height="43" viewBox="0 0 43 43" fill="none" xmlns="http://www.w3.org/2000/svg">
<path d="M43 18.8984V13.7768C43 13.5483 42.8346 13.3486 42.608 13.3178C41.1982 13.1265 40.1113 11.9177 40.1113 10.4555C40.1113 10.4539 40.1113 10.4522 40.1113 10.4506C40.1117 10.1909 39.9077 9.97754 39.6479 9.97754H3.35207C3.0923 9.97754 2.88831 10.1909 2.88873 10.4506C2.88873 10.4522 2.88873 10.4539 2.88873 10.4555C2.88873 11.9177 1.8018 13.1265 0.391955 13.3178C0.165449 13.3486 0 13.5482 0 13.7768V18.8984C0 19.1229 0.161166 19.3149 0.382297 19.3541C1.40355 19.5347 2.17939 20.4268 2.17939 21.4999C2.17939 22.5731 1.40363 23.4652 0.382297 23.6459C0.161166 23.685 0 23.877 0 24.1015V29.2231C0 29.4516 0.165449 29.6513 0.391955 29.682C1.8018 29.8734 2.88873 31.0821 2.88873 32.5444C2.88873 32.546 2.88873 32.5477 2.88873 32.5493C2.88831 32.809 3.0923 33.0223 3.35207 33.0223H39.6479C39.9077 33.0223 40.1117 32.809 40.1113 32.5493C40.1113 32.5477 40.1113 32.546 40.1113 32.5444C40.1113 31.0821 41.1982 29.8734 42.608 29.682C42.8346 29.6513 43 29.4517 43 29.2231V24.1015C43 23.877 42.8388 23.685 42.6177 23.6458C41.5964 23.4652 40.8206 22.5731 40.8206 21.4999C40.8206 20.4268 41.5964 19.5347 42.6177 19.354C42.8388 19.3148 43 19.1229 43 18.8984Z" fill="#ED3124"/>
<path d="M40.8202 21.5004C40.8202 22.5733 41.5964 23.4655 42.6175 23.6464C42.839 23.6854 43 23.8775 43 24.1016V29.2235C43 29.4519 42.8347 29.6518 42.6079 29.6821C41.1983 29.8742 40.1115 31.0822 40.1115 32.5446V32.5499C40.1115 32.8094 39.9072 33.0232 39.6476 33.0232H37.4766C37.5354 31.5366 38.3786 29.3051 39.8255 29.1088C40.0644 29.0768 40.2383 28.8656 40.2383 28.625V14.6354C40.2383 14.3949 40.0644 14.1837 39.8255 14.1516C38.3787 13.9552 37.5354 11.4642 37.4766 9.97754H39.6476C39.9072 9.97754 40.1115 10.1913 40.1115 10.4509V10.4561C40.1115 11.9185 41.1983 13.1265 42.6079 13.3186C42.8347 13.3489 43 13.5488 43 13.7772V18.8991C43 19.1233 42.839 19.3153 42.6175 19.3543C41.5964 19.5352 40.8202 20.4274 40.8202 21.5004Z" fill="#D8231E"/>
<path d="M36.2563 29.9264H6.74372C6.50479 29.9264 6.31104 29.7326 6.31104 29.4937V13.5069C6.31104 13.268 6.50479 13.0742 6.74372 13.0742H36.2563C36.4953 13.0742 36.689 13.268 36.689 13.5069V29.4937C36.6889 29.7326 36.4953 29.9264 36.2563 29.9264Z" fill="#E2EEFD"/>
<path d="M36.2563 29.9264H34.2203V13.0742H36.2563C36.4952 13.0742 36.689 13.268 36.689 13.5069V29.4937C36.6889 29.7326 36.4952 29.9264 36.2563 29.9264Z" fill="#C7DCF2"/>
<path d="M12.0206 18.1328H9.09253C8.76835 18.1328 8.50464 18.4065 8.50464 18.743C8.50464 19.0794 8.76835 19.3531 9.09253 19.3531H9.94648V23.8081C9.94648 24.1474 10.212 24.4034 10.564 24.4034C10.9103 24.4034 11.1815 24.1419 11.1815 23.8081V19.3531H12.0206C12.3558 19.3531 12.6086 19.0877 12.6086 18.7357C12.6086 18.3975 12.3503 18.1328 12.0206 18.1328Z" fill="#707487"/>
<path d="M13.9801 18.1328C13.628 18.1328 13.3625 18.3856 13.3625 18.7208V23.808C13.3625 24.1417 13.6338 24.4033 13.9801 24.4033C14.3321 24.4033 14.5975 24.1474 14.5975 23.808V18.7208C14.5976 18.3856 14.3321 18.1328 13.9801 18.1328Z" fill="#707487"/>
<path d="M17.7141 19.3531C18.2674 19.3531 18.3647 19.6132 18.3834 19.8708C18.3927 20.2018 18.6494 20.4401 19.0006 20.4401C19.2991 20.4401 19.6181 20.2624 19.6181 19.7635C19.6181 18.9532 18.9641 18.1328 17.714 18.1328C16.5167 18.1328 15.7729 18.8936 15.7729 20.1184V22.4623C15.7729 23.687 16.5082 24.4478 17.6918 24.4478C18.9565 24.4478 19.6181 23.6275 19.6181 22.8172C19.6181 22.3129 19.2953 22.1332 18.9932 22.1332C18.6635 22.1332 18.4222 22.3461 18.3865 22.6652C18.3303 23.0161 18.2914 23.2275 17.7361 23.2275C17.1917 23.2275 17.0079 23.0344 17.0079 22.4623V20.1184C17.0081 19.6337 17.1236 19.3531 17.7141 19.3531Z" fill="#707487"/>
<path d="M22.8191 20.9263L24.251 19.1413C24.348 19.0424 24.4024 18.9064 24.4024 18.7578C24.4024 18.4249 24.1068 18.1328 23.7701 18.1328C23.5798 18.1328 23.4054 18.2189 23.2985 18.3644L21.807 20.2446V18.7208C21.807 18.3855 21.5415 18.1328 21.1896 18.1328C20.8375 18.1328 20.572 18.3856 20.572 18.7208V23.808C20.572 24.1417 20.8433 24.4033 21.1896 24.4033C21.5415 24.4033 21.807 24.1474 21.807 23.808V22.1931L22.0079 21.9433L23.4668 24.1257C23.5816 24.3043 23.7691 24.4107 23.9698 24.4107C24.3165 24.4107 24.6095 24.128 24.6095 23.7933C24.6095 23.6657 24.5688 23.5464 24.4937 23.4515L22.8191 20.9263Z" fill="#707487"/>
<path d="M28.5392 19.353C28.8689 19.353 29.1272 19.0818 29.1272 18.7356C29.1272 18.392 28.8744 18.1328 28.5392 18.1328H25.9069C25.5647 18.1328 25.2968 18.3943 25.2968 18.7283V23.8081C25.2968 24.1418 25.5647 24.4034 25.9069 24.4034H28.5392C28.8745 24.4034 29.1272 24.1442 29.1272 23.8007C29.1272 23.4545 28.8689 23.1832 28.5392 23.1832H26.5319V21.8672H27.2748C27.6046 21.8672 27.8628 21.6057 27.8628 21.2719C27.8628 20.9297 27.6046 20.6617 27.2748 20.6617H26.5319V19.3531L28.5392 19.353Z" fill="#707487"/>
<path d="M32.9833 18.1328H30.0551C29.7309 18.1328 29.4672 18.4065 29.4672 18.743C29.4672 19.0794 29.7309 19.3531 30.0551 19.3531H30.9091V23.8081C30.9091 24.1474 31.1745 24.4034 31.5265 24.4034C31.8728 24.4034 32.1441 24.1419 32.1441 23.8081V19.3531H32.9833C33.3185 19.3531 33.5712 19.0877 33.5712 18.7357C33.5713 18.3975 33.3131 18.1328 32.9833 18.1328Z" fill="#707487"/>
</svg>
