<svg width="33" height="32" viewBox="0 0 33 32" fill="none" xmlns="http://www.w3.org/2000/svg">
<path d="M25.8603 2.84504H21.0751V0.370746C21.0751 0.166016 21.2411 0 21.4458 0H25.4896C25.6943 0 25.8603 0.166016 25.8603 0.370746V2.84504Z" fill="#10BBC2"/>
<path d="M25.4896 0H24.1412C24.3459 0 24.5119 0.166016 24.5119 0.370746V2.84504H25.8603V0.370746C25.8603 0.166016 25.6943 0 25.4896 0Z" fill="#A8DADC"/>
<path d="M23.5277 20.66C28.6552 20.66 32.8119 16.5034 32.8119 11.3759C32.8119 6.24844 28.6552 2.0918 23.5277 2.0918C18.4003 2.0918 14.2436 6.24844 14.2436 11.3759C14.2436 16.5034 18.4003 20.66 23.5277 20.66Z" fill="#80B4FB"/>
<path d="M23.5277 2.0918C23.2253 2.0918 22.9264 2.10674 22.6313 2.13503C27.3381 2.58606 31.019 6.55091 31.019 11.3759C31.019 16.2009 27.3381 20.1658 22.6313 20.6168C22.9264 20.6451 23.2253 20.66 23.5277 20.66C28.6552 20.66 32.8119 16.5034 32.8119 11.3759C32.8119 6.2485 28.6552 2.0918 23.5277 2.0918Z" fill="#DDDAEC"/>
<path d="M21.7348 30.6009C21.7348 31.0238 21.392 31.3667 20.969 31.3667H0.765797C0.342856 31.3667 0 31.0238 0 30.6009V11.7658C0 11.3429 0.342856 11 0.765797 11H20.9691C21.392 11 21.7349 11.3429 21.7349 11.7658L21.7348 30.6009Z" fill="#A8DADC"/>
<path d="M19 11C19.416 11 19.7532 11.3373 19.7532 11.7532V31.3667H20.5449C20.9679 31.3667 21.3107 31.0238 21.3107 30.6009V11.7658C21.3107 11.3429 20.9679 11 20.5449 11H19Z" fill="#10BBC2"/>
<path d="M16.5399 30.8592C16.003 31.3818 15.1441 31.3702 14.6215 30.8333L14.299 30.502C14.2684 30.4705 14.269 30.4202 14.3005 30.3896L16.4875 28.2609C16.5029 28.2459 16.5115 28.2253 16.5115 28.2039C16.5115 28.1825 16.5028 28.1619 16.4875 28.1469L14.3005 26.0182C14.269 25.9876 14.2684 25.9373 14.299 25.9058L14.6215 25.5745C15.1441 25.0375 16.003 25.026 16.5399 25.5486L18.5578 27.5127C18.6623 27.6145 18.7475 27.7363 18.7975 27.8734C18.9302 28.2379 18.8312 28.629 18.569 28.8841L16.5399 30.8592Z" fill="#F9F6F6"/>
<path d="M12.2063 17.2079H9.52857C9.28074 17.2079 9.07986 17.007 9.07986 16.7592V13.6328H12.655V16.7592C12.655 17.007 12.4541 17.2079 12.2063 17.2079Z" fill="#26457D"/>
<path d="M11.3516 13.6328V16.7592C11.3516 17.007 11.1507 17.2079 10.9028 17.2079H12.2063C12.4541 17.2079 12.655 17.007 12.655 16.7592V13.6328H11.3516Z" fill="#21386B"/>
<path d="M4.20657 30.0472C3.92314 30.0472 3.69351 29.8175 3.69351 29.5341V26.184C3.69351 25.9005 3.92321 25.6709 4.20657 25.6709C4.48999 25.6709 4.71962 25.9006 4.71962 26.184V29.5341C4.71969 29.8175 4.48999 30.0472 4.20657 30.0472Z" fill="#26457D"/>
<path d="M2.79345 27.5527C2.6611 27.5527 2.52875 27.5018 2.42841 27.4002C2.22926 27.1986 2.23132 26.8737 2.43286 26.6746L3.84605 25.2789C4.04593 25.0816 4.36727 25.0814 4.56716 25.2789L5.98041 26.6746C6.18196 26.8737 6.18402 27.1985 5.98486 27.4001C5.78571 27.6019 5.46085 27.6037 5.25931 27.4047L4.20657 26.3651L3.15397 27.4047C3.05396 27.5034 2.92367 27.5527 2.79345 27.5527Z" fill="#26457D"/>
<path d="M8.73481 30.0472C8.45139 30.0472 8.22176 29.8175 8.22176 29.5341V26.184C8.22176 25.9005 8.45146 25.6709 8.73481 25.6709C9.01817 25.6709 9.24787 25.9006 9.24787 26.184V29.5341C9.24787 29.8175 9.01817 30.0472 8.73481 30.0472Z" fill="#26457D"/>
<path d="M7.32161 27.5527C7.18927 27.5527 7.05692 27.5018 6.95658 27.4002C6.75743 27.1986 6.75949 26.8737 6.96103 26.6746L8.37422 25.2789C8.5741 25.0816 8.89544 25.0814 9.09532 25.2789L10.5086 26.6746C10.7101 26.8737 10.7122 27.1985 10.513 27.4001C10.3139 27.6019 9.98895 27.6037 9.78748 27.4047L8.73474 26.3651L7.68213 27.4047C7.58213 27.5034 7.4519 27.5527 7.32161 27.5527Z" fill="#26457D"/>
<path d="M23.5277 5.21298C23.2443 5.21298 23.0147 4.98328 23.0147 4.69992V4.11462C23.0147 3.8312 23.2444 3.60156 23.5277 3.60156C23.8112 3.60156 24.0408 3.83126 24.0408 4.11462V4.69992C24.0408 4.98328 23.8112 5.21298 23.5277 5.21298Z" fill="#21386B"/>
<path d="M30.7895 11.8884H30.2042C29.9208 11.8884 29.6912 11.6587 29.6912 11.3754C29.6912 11.092 29.9209 10.8623 30.2042 10.8623H30.7895C31.0729 10.8623 31.3026 11.092 31.3026 11.3754C31.3026 11.6587 31.0729 11.8884 30.7895 11.8884Z" fill="#21386B"/>
<path d="M23.5277 19.1515C23.2443 19.1515 23.0147 18.9218 23.0147 18.6384V18.0531C23.0147 17.7697 23.2444 17.54 23.5277 17.54C23.8112 17.54 24.0408 17.7697 24.0408 18.0531V18.6384C24.0408 18.9218 23.8112 19.1515 23.5277 19.1515Z" fill="#21386B"/>
<path d="M16.8513 11.8884H16.266C15.9825 11.8884 15.7529 11.6587 15.7529 11.3754C15.7529 11.092 15.9826 10.8623 16.266 10.8623H16.8513C17.1347 10.8623 17.3644 11.092 17.3644 11.3754C17.3644 11.6587 17.1347 11.8884 16.8513 11.8884Z" fill="#21386B"/>
<path d="M23.4677 11.8883C23.3794 11.8883 23.291 11.8655 23.2118 11.8199C23.0527 11.7284 22.9547 11.5588 22.9547 11.3753V7.0072C22.9547 6.72377 23.1844 6.49414 23.4677 6.49414C23.7511 6.49414 23.9808 6.72384 23.9808 7.0072V10.4838L25.2984 9.71816C25.5433 9.57586 25.8574 9.659 25.9998 9.9041C26.1421 10.1491 26.0589 10.4632 25.8138 10.6055L23.7254 11.8189C23.6458 11.8651 23.5568 11.8883 23.4677 11.8883Z" fill="#26457D"/>
</svg>
