<svg width="21" height="22" viewBox="0 0 21 22" fill="none" xmlns="http://www.w3.org/2000/svg">
<path fill-rule="evenodd" clip-rule="evenodd" d="M20.1632 20.63C20.1632 21.2944 19.5363 21.8337 18.7607 21.8337C17.9851 21.8337 17.3581 21.2944 17.3581 20.63C17.3581 17.3113 14.2123 14.6114 10.3455 14.6114C6.47871 14.6114 3.33283 17.3113 3.33283 20.63C3.33283 21.2944 2.7059 21.8337 1.9303 21.8337C1.1547 21.8337 0.527771 21.2944 0.527771 20.63C0.527771 15.9837 4.93312 12.204 10.3455 12.204C15.7578 12.204 20.1632 15.9837 20.1632 20.63ZM10.3455 2.5744C11.8925 2.5744 13.1505 3.65412 13.1505 4.98181C13.1505 6.30949 11.8925 7.38921 10.3455 7.38921C8.79849 7.38921 7.54042 6.30949 7.54042 4.98181C7.54042 3.65412 8.79849 2.5744 10.3455 2.5744ZM10.3455 9.79662C13.4395 9.79662 15.9556 7.63718 15.9556 4.98181C15.9556 2.32644 13.4395 0.166992 10.3455 0.166992C7.2515 0.166992 4.73536 2.32644 4.73536 4.98181C4.73536 7.63718 7.2515 9.79662 10.3455 9.79662Z" fill="black"/>
</svg>
