<svg width="34" height="20" viewBox="0 0 34 20" fill="none" xmlns="http://www.w3.org/2000/svg">
<path d="M2.85739 19.1591H0.498047C0.222926 19.1591 0 18.9362 0 18.6611C0 18.3859 0.222926 18.163 0.498047 18.163H2.35935V16.54C2.35935 16.2649 2.58227 16.042 2.85739 16.042C3.13252 16.042 3.35544 16.2649 3.35544 16.54V18.6611C3.35544 18.9362 3.13252 19.1591 2.85739 19.1591Z" fill="#21386B"/>
<path d="M2.85241 7.88477C2.85241 8.15982 2.62949 8.38281 2.35437 8.38281H0.830078C0.554957 8.38281 0.332031 8.15982 0.332031 7.88477C0.332031 7.60971 0.554957 7.38672 0.830078 7.38672H2.35437C2.62949 7.38672 2.85241 7.60971 2.85241 7.88477Z" fill="#21386B"/>
<path d="M27.2305 0.445453C27.2951 0.222594 27.1279 0 26.8958 0H2.82439C2.19805 0 1.69037 0.507742 1.69037 1.13402V14.4818H19.7849V5.23115C19.7849 4.87302 20.0752 4.5827 20.4333 4.5827H25.7697C25.9247 4.5827 26.0612 4.48016 26.1044 4.33121L27.2305 0.445453Z" fill="#A8DADC"/>
<path d="M19.1088 4.58301C18.7507 4.58301 18.4603 4.87334 18.4603 5.23146V14.4822H19.7849V5.23153C19.7849 4.8734 20.0752 4.58307 20.4333 4.58307H19.1088V4.58301Z" fill="#10BBC2"/>
<path d="M26.8958 0H25.5713C25.8033 0 25.9706 0.222594 25.9059 0.445453L24.7798 4.33121C24.7367 4.48016 24.6003 4.5827 24.4451 4.5827H25.7697C25.9247 4.5827 26.0612 4.48016 26.1044 4.33121L27.2305 0.445453C27.2951 0.222527 27.1279 0 26.8958 0Z" fill="#10BBC2"/>
<path d="M24.8773 3.33634C24.8314 3.33634 24.7847 3.32997 24.7384 3.31655C24.4742 3.23999 24.3221 2.96374 24.3987 2.69951L24.7803 1.38293C24.8568 1.11877 25.1332 0.966767 25.3973 1.0432C25.6615 1.11977 25.8136 1.39602 25.7369 1.66018L25.3554 2.97675C25.2923 3.1947 25.0933 3.33634 24.8773 3.33634Z" fill="#F9F6F6"/>
<path d="M23.2173 3.33634C23.1715 3.33634 23.1247 3.32997 23.0784 3.31655C22.8142 3.23999 22.6621 2.96374 22.7388 2.69951L23.1203 1.38293C23.1968 1.11877 23.4733 0.966767 23.7373 1.0432C24.0015 1.11977 24.1536 1.39602 24.077 1.66018L23.6954 2.97675C23.6323 3.1947 23.4333 3.33634 23.2173 3.33634Z" fill="#F9F6F6"/>
<path d="M21.5574 3.33637C21.5115 3.33637 21.4648 3.33 21.4185 3.31659C21.1542 3.24002 21.0022 2.96384 21.0787 2.69961L21.4602 1.38303C21.5367 1.1188 21.813 0.966601 22.0773 1.0433C22.3415 1.11987 22.4936 1.39605 22.417 1.66028L22.0355 2.97685C21.9724 3.19473 21.7734 3.33637 21.5574 3.33637Z" fill="#F9F6F6"/>
<path d="M33.5019 13.1607C33.5019 12.8508 33.4175 12.5466 33.2578 12.2811L32.9777 11.8155L29.5554 10.1396C29.3534 10.1396 29.1897 9.97584 29.1897 9.77383L27.315 6.42676H22.1962C21.8973 6.42676 21.6551 6.66901 21.6551 6.96784V17.2042H33.1291C33.3351 17.2042 33.502 17.0373 33.502 16.8314V13.1607H33.5019Z" fill="#F9F6F6"/>
<path d="M33.5019 16.8313V13.1606C33.5019 12.9654 33.4683 12.7725 33.4036 12.5901C33.3656 12.4829 33.3169 12.3793 33.2578 12.281L32.9777 11.8154H31.5655L31.8456 12.281C32.0054 12.5466 32.0898 12.8507 32.0898 13.1606V17.2042H33.129C33.335 17.2042 33.5019 17.0372 33.5019 16.8313Z" fill="#DDDAEC"/>
<path d="M21.655 17.2045H1.49367C0.943827 17.2045 0.498108 16.7588 0.498108 16.209V14.6781C0.498108 14.57 0.585698 14.4824 0.693741 14.4824H21.6551V17.2045H21.655Z" fill="#10BBC2"/>
<path d="M20.5445 14.4824H21.655V17.2045H20.5445V14.4824Z" fill="#4278C3"/>
<path d="M11.3306 10.3052C10.7109 10.9084 9.71941 10.895 9.11618 10.2753L8.76217 9.91148C8.71681 9.86486 8.71781 9.79029 8.76442 9.74493L11.2818 7.29467C11.2964 7.2804 11.3047 7.26074 11.3047 7.24022C11.3047 7.2197 11.2964 7.20005 11.2818 7.18577L8.76442 4.73544C8.71781 4.69009 8.71681 4.61551 8.76217 4.5689L9.11618 4.20519C9.71941 3.58542 10.7109 3.57201 11.3306 4.17524L13.6598 6.44235C13.7806 6.55989 13.8788 6.7004 13.9365 6.85878C14.0896 7.27947 13.9755 7.7309 13.6728 8.02541L11.3306 10.3052Z" fill="#10BBC2"/>
<path d="M29.4297 6.42676H27.315V11.4498C27.315 11.6518 27.4788 11.8156 27.6808 11.8156H32.9777L29.8934 6.68893C29.7955 6.52623 29.6195 6.42676 29.4297 6.42676Z" fill="#E4F6FF"/>
<path d="M28.0175 6.42676C28.2074 6.42676 28.3833 6.52623 28.4812 6.68893L31.5655 11.8156H32.9777L29.8934 6.68893C29.7955 6.5263 29.6196 6.42676 29.4297 6.42676H27.315H28.0175Z" fill="#D3EFFB"/>
<path d="M25.4081 11.0035C25.133 11.0035 24.91 10.7806 24.91 10.5055V8.87598C24.91 8.60092 25.133 8.37793 25.4081 8.37793C25.6832 8.37793 25.9061 8.60092 25.9061 8.87598V10.5055C25.9061 10.7805 25.6831 11.0035 25.4081 11.0035Z" fill="#80B4FB"/>
<path d="M23.6559 11.0035C23.3808 11.0035 23.1579 10.7806 23.1579 10.5055V8.87598C23.1579 8.60092 23.3808 8.37793 23.6559 8.37793C23.931 8.37793 24.154 8.60092 24.154 8.87598V10.5055C24.154 10.7805 23.931 11.0035 23.6559 11.0035Z" fill="#80B4FB"/>
<path d="M33.502 14.5205H32.7745C32.4994 14.5205 32.2764 14.2976 32.2764 14.0225C32.2764 13.7473 32.4994 13.5244 32.7745 13.5244H33.502C33.7771 13.5244 34 13.7473 34 14.0225C34 14.2976 33.7771 14.5205 33.502 14.5205Z" fill="#DA4A54"/>
<path d="M27.1277 19.9126C28.6884 19.9126 29.9536 18.6474 29.9536 17.0867C29.9536 15.526 28.6884 14.2607 27.1277 14.2607C25.567 14.2607 24.3018 15.526 24.3018 17.0867C24.3018 18.6474 25.567 19.9126 27.1277 19.9126Z" fill="#26457D"/>
<path d="M27.1277 14.2607C26.9443 14.2607 26.7653 14.2788 26.5917 14.3121C27.896 14.5627 28.8817 15.7093 28.8817 17.0867C28.8817 18.4641 27.8961 19.6106 26.5917 19.8612C26.7653 19.8945 26.9443 19.9126 27.1277 19.9126C28.6884 19.9126 29.9536 18.6474 29.9536 17.0867C29.9536 15.526 28.6884 14.2607 27.1277 14.2607Z" fill="#21386B"/>
<path d="M27.1277 17.7912C26.8526 17.7912 26.6296 17.5683 26.6296 17.2932V16.8809C26.6296 16.6057 26.8526 16.3828 27.1277 16.3828C27.4028 16.3828 27.6257 16.6057 27.6257 16.8809V17.2932C27.6257 17.5682 27.4027 17.7912 27.1277 17.7912Z" fill="#F9F6F6"/>
<path d="M8.13943 19.9126C9.70014 19.9126 10.9653 18.6474 10.9653 17.0867C10.9653 15.526 9.70014 14.2607 8.13943 14.2607C6.57871 14.2607 5.31351 15.526 5.31351 17.0867C5.31351 18.6474 6.57871 19.9126 8.13943 19.9126Z" fill="#26457D"/>
<path d="M8.13942 14.2607C7.95607 14.2607 7.77704 14.2788 7.60345 14.3121C8.90774 14.5627 9.89341 15.7093 9.89341 17.0867C9.89341 18.4641 8.90781 19.6106 7.60345 19.8612C7.77704 19.8945 7.95607 19.9126 8.13942 19.9126C9.7001 19.9126 10.9653 18.6474 10.9653 17.0867C10.9653 15.526 9.70017 14.2607 8.13942 14.2607Z" fill="#21386B"/>
<path d="M8.13942 17.7912C7.86429 17.7912 7.64137 17.5683 7.64137 17.2932V16.8809C7.64137 16.6057 7.86429 16.3828 8.13942 16.3828C8.41454 16.3828 8.63746 16.6057 8.63746 16.8809V17.2932C8.63746 17.5682 8.41454 17.7912 8.13942 17.7912Z" fill="#F9F6F6"/>
<path d="M19.9627 18.7168H16.4961C16.2936 18.7168 16.1294 18.5525 16.1294 18.35V17.2041H20.3293V18.3501C20.3293 18.5526 20.1652 18.7168 19.9627 18.7168Z" fill="#26457D"/>
<path d="M19.3207 17.2041V18.3501C19.3207 18.5526 19.1565 18.7168 18.954 18.7168H19.9627C20.1652 18.7168 20.3293 18.5527 20.3293 18.3501V17.2041H19.3207Z" fill="#21386B"/>
</svg>
