<svg width="9" height="9" viewBox="0 0 9 9" fill="none" xmlns="http://www.w3.org/2000/svg">
<g clip-path="url(#clip0_808_526)">
<path d="M6.19531 3.86719C6.19531 3.67302 6.03792 3.51562 5.84375 3.51562H2.22266C2.02849 3.51562 1.87109 3.67302 1.87109 3.86719C1.87109 4.06136 2.02849 4.21875 2.22266 4.21875H5.84375C6.03792 4.21875 6.19531 4.06136 6.19531 3.86719Z" fill="#26457D"/>
<path d="M2.22266 4.92188C2.02849 4.92188 1.87109 5.07927 1.87109 5.27344C1.87109 5.46761 2.02849 5.625 2.22266 5.625H4.42187C4.61604 5.625 4.77344 5.46761 4.77344 5.27344C4.77344 5.07927 4.61604 4.92188 4.42187 4.92188H2.22266Z" fill="#26457D"/>
<path d="M3.04883 8.29688H1.87305C1.48534 8.29688 1.16992 7.98145 1.16992 7.59375V1.40625C1.16992 1.01855 1.48534 0.703125 1.87305 0.703125H6.19531C6.58302 0.703125 6.89844 1.01855 6.89844 1.40625V3.56836C6.89844 3.76253 7.05583 3.91992 7.25 3.91992C7.44417 3.91992 7.60156 3.76253 7.60156 3.56836V1.40625C7.60156 0.630844 6.97072 0 6.19531 0H1.87305C1.09764 0 0.466797 0.630844 0.466797 1.40625V7.59375C0.466797 8.36916 1.09764 9 1.87305 9H3.04883C3.243 9 3.40039 8.84261 3.40039 8.64844C3.40039 8.45427 3.243 8.29688 3.04883 8.29688Z" fill="#26457D"/>
<path d="M8.2243 5.08971C7.81308 4.67849 7.14399 4.67847 6.73303 5.08943L4.8029 7.01529C4.7619 7.05619 4.73167 7.10657 4.71483 7.16198L4.29448 8.54581C4.25722 8.66851 4.28969 8.80173 4.37923 8.89351C4.44631 8.96226 4.53743 8.99958 4.63089 8.99958C4.66217 8.99958 4.69374 8.99539 4.72473 8.9868L6.14372 8.59373C6.20211 8.57756 6.25534 8.54657 6.29823 8.50375L8.22432 6.58128C8.63554 6.17006 8.63554 5.50097 8.2243 5.08971ZM5.86694 7.94081L5.15305 8.13856L5.36197 7.45075L6.66431 6.15129L7.1616 6.64857L5.86694 7.94081ZM7.72739 6.08389L7.65927 6.15187L7.16207 5.65467L7.22996 5.58692C7.36703 5.44985 7.59007 5.44985 7.72714 5.58692C7.86421 5.724 7.86421 5.94703 7.72739 6.08389Z" fill="#26457D"/>
<path d="M5.84375 2.10938H2.22266C2.02849 2.10938 1.87109 2.26677 1.87109 2.46094C1.87109 2.65511 2.02849 2.8125 2.22266 2.8125H5.84375C6.03792 2.8125 6.19531 2.65511 6.19531 2.46094C6.19531 2.26677 6.03792 2.10938 5.84375 2.10938Z" fill="#26457D"/>
</g>
<defs>
<clipPath id="clip0_808_526">
<rect width="9" height="9" fill="white"/>
</clipPath>
</defs>
</svg>
