<svg width="22" height="21" viewBox="0 0 22 21" fill="none" xmlns="http://www.w3.org/2000/svg">
<path d="M21.7348 19.6009C21.7348 20.0238 21.392 20.3667 20.969 20.3667H0.765797C0.342856 20.3667 0 20.0238 0 19.6009V0.765797C0 0.342855 0.342856 0 0.765797 0H20.9691C21.392 0 21.7349 0.342855 21.7349 0.765797L21.7348 19.6009Z" fill="#A8DADC"/>
<path d="M19 0C19.416 0 19.7532 0.337277 19.7532 0.753246V20.3667H20.5449C20.9679 20.3667 21.3107 20.0238 21.3107 19.6009V0.765797C21.3107 0.342855 20.9679 0 20.5449 0H19Z" fill="#10BBC2"/>
<path d="M16.5398 19.8592C16.0029 20.3818 15.144 20.3702 14.6214 19.8333L14.2989 19.502C14.2683 19.4705 14.2689 19.4202 14.3004 19.3896L16.4874 17.2609C16.5028 17.2459 16.5114 17.2253 16.5114 17.2039C16.5114 17.1825 16.5027 17.1619 16.4874 17.1469L14.3004 15.0182C14.2689 14.9876 14.2683 14.9373 14.2989 14.9058L14.6214 14.5745C15.144 14.0375 16.0029 14.026 16.5398 14.5486L18.5577 16.5127C18.6622 16.6145 18.7474 16.7363 18.7974 16.8734C18.9301 17.2379 18.8311 17.629 18.5689 17.8841L16.5398 19.8592Z" fill="#F9F6F6"/>
<path d="M12.2065 6.20793H9.52879C9.28096 6.20793 9.08008 6.00705 9.08008 5.75922V2.63281H12.6553V5.75922C12.6552 6.00705 12.4543 6.20793 12.2065 6.20793Z" fill="#26457D"/>
<path d="M11.3515 2.63281V5.75922C11.3515 6.00705 11.1507 6.20793 10.9028 6.20793H12.2063C12.4541 6.20793 12.655 6.00705 12.655 5.75922V2.63281H11.3515Z" fill="#21386B"/>
<path d="M4.20641 19.0472C3.92299 19.0472 3.69336 18.8175 3.69336 18.5341V15.184C3.69336 14.9005 3.92306 14.6709 4.20641 14.6709C4.48984 14.6709 4.71947 14.9006 4.71947 15.184V18.5341C4.71953 18.8175 4.48984 19.0472 4.20641 19.0472Z" fill="#26457D"/>
<path d="M2.79335 16.5527C2.66101 16.5527 2.52866 16.5018 2.42832 16.4002C2.22917 16.1986 2.23123 15.8737 2.43277 15.6746L3.84596 14.2789C4.04584 14.0816 4.36718 14.0814 4.56707 14.2789L5.98032 15.6746C6.18187 15.8737 6.18392 16.1985 5.98477 16.4001C5.78562 16.6019 5.46076 16.6037 5.25922 16.4047L4.20648 15.3651L3.15387 16.4047C3.05387 16.5034 2.92358 16.5527 2.79335 16.5527Z" fill="#26457D"/>
<path d="M8.73473 19.0472C8.45131 19.0472 8.22168 18.8175 8.22168 18.5341V15.184C8.22168 14.9005 8.45138 14.6709 8.73473 14.6709C9.01809 14.6709 9.24779 14.9006 9.24779 15.184V18.5341C9.24779 18.8175 9.01809 19.0472 8.73473 19.0472Z" fill="#26457D"/>
<path d="M7.32167 16.5527C7.18933 16.5527 7.05698 16.5018 6.95664 16.4002C6.75749 16.1986 6.75955 15.8737 6.96109 15.6746L8.37428 14.2789C8.57416 14.0816 8.8955 14.0814 9.09539 14.2789L10.5086 15.6746C10.7102 15.8737 10.7122 16.1985 10.5131 16.4001C10.3139 16.6019 9.98901 16.6037 9.78754 16.4047L8.7348 15.3651L7.68219 16.4047C7.58219 16.5034 7.45196 16.5527 7.32167 16.5527Z" fill="#26457D"/>
</svg>
